<?xml version="1.0" encoding="UTF-8" standalone="no"?>
<!DOCTYPE svg PUBLIC "-//W3C//DTD SVG 1.1//EN" "http://www.w3.org/Graphics/SVG/1.1/DTD/svg11.dtd">
<svg width="100%" height="100%" viewBox="0 0 965 252" version="1.1" xmlns="http://www.w3.org/2000/svg" xmlns:xlink="http://www.w3.org/1999/xlink" xml:space="preserve" xmlns:serif="http://www.serif.com/" style="fill-rule:evenodd;clip-rule:evenodd;stroke-linejoin:round;stroke-miterlimit:2;">
    <g transform="matrix(1,0,0,1,-479,-857.61)">
        <g id="tekst-wektor" serif:id="tekst wektor">
            <path d="M647.353,1091.42C630.274,1102.54 609.886,1109 588,1109C527.841,1109 479,1060.16 479,1000C479,939.841 527.841,891 588,891C613.995,891 637.876,900.119 656.615,915.329C642.025,906.854 625.075,902 607,902C552.36,902 508,946.36 508,1001C508,1055.64 552.36,1100 607,1100C621.37,1100 635.029,1096.93 647.353,1091.42Z" style="fill:rgb(255,128,0);"/>
            <g transform="matrix(1.65105,0,-0.546637,1.06331,-215.633,4.45412)">
                <path d="M1203.63,866.1C1198.44,866.1 1193.84,865.364 1189.81,863.892L1189.81,852.948C1193.01,854.356 1196.75,855.06 1201.04,855.06C1205.01,855.06 1207.84,854.244 1209.53,852.612C1211.23,850.98 1212.08,848.308 1212.08,844.596L1212.08,803.316L1225.04,803.316L1225.04,847.476C1225.04,859.892 1217.9,866.1 1203.63,866.1ZM1166.19,866.1C1155.82,866.1 1147.88,863.3 1142.38,857.7C1136.88,852.1 1134.12,844.468 1134.12,834.804C1134.12,824.564 1136.8,816.596 1142.14,810.9C1147.49,805.204 1155.47,802.356 1166.09,802.356C1169.81,802.356 1173.15,802.628 1176.12,803.172C1179.1,803.716 1181.9,804.468 1184.53,805.428L1184.53,816.756C1179.09,814.516 1173.26,813.396 1167.05,813.396C1160.01,813.396 1154.96,815.156 1151.88,818.676C1148.81,822.196 1147.28,827.572 1147.28,834.804C1147.28,848.372 1153.93,855.156 1167.25,855.156C1170.25,855.156 1173.23,854.884 1176.17,854.34C1179.12,853.796 1181.93,852.98 1184.62,851.892L1184.62,863.316C1182,864.148 1179.2,864.82 1176.22,865.332C1173.25,865.844 1169.9,866.1 1166.19,866.1ZM912.749,866.1C904.237,866.1 897.501,864.036 892.541,859.908C887.581,855.78 885.101,849.78 885.101,841.908L885.101,803.316L898.061,803.316L898.061,840.948C898.061,845.684 899.341,849.22 901.901,851.556C904.461,853.892 908.077,855.06 912.749,855.06C917.421,855.06 921.021,853.892 923.549,851.556C926.077,849.22 927.341,845.684 927.341,840.948L927.341,803.316L940.301,803.316L940.301,841.908C940.301,849.78 937.837,855.78 932.909,859.908C927.981,864.036 921.261,866.1 912.749,866.1ZM834.989,865.14L834.989,803.316L878.477,803.316L878.477,813.396L847.949,813.396L847.949,829.236L874.925,829.236L874.925,839.22L847.949,839.22L847.949,865.14L834.989,865.14ZM950.765,865.14L950.765,803.316L961.997,803.316L991.277,844.5L991.277,803.316L1004.24,803.316L1004.24,865.14L993.005,865.14L963.725,823.956L963.725,865.14L950.765,865.14ZM1015.18,865.14L1015.18,803.316L1041.1,803.316C1050.38,803.316 1057.37,805.7 1062.08,810.468C1066.78,815.236 1069.13,823.252 1069.13,834.516C1069.13,845.14 1066.81,852.9 1062.17,857.796C1057.53,862.692 1050.51,865.14 1041.1,865.14L1015.18,865.14ZM1070.96,865.14L1094.57,803.316L1108.78,803.316L1132.3,865.14L1118.86,865.14L1113.01,850.26L1090.25,850.26L1084.49,865.14L1070.96,865.14ZM1230.22,865.14L1253.84,803.316L1268.05,803.316L1291.57,865.14L1278.12,865.14L1272.27,850.26L1249.52,850.26L1243.76,865.14L1230.22,865.14ZM1028.14,855.156L1039.28,855.156C1042.92,855.156 1046,854.596 1048.49,853.476C1050.99,852.356 1052.86,850.308 1054.11,847.332C1055.36,844.356 1055.98,840.084 1055.98,834.516C1055.98,828.948 1055.4,824.692 1054.25,821.748C1053.1,818.804 1051.31,816.788 1048.88,815.7C1046.44,814.612 1043.25,814.068 1039.28,814.068L1028.14,814.068L1028.14,855.156ZM1092.17,840.276L1111.09,840.276L1101.58,815.412L1092.17,840.276ZM1251.44,840.276L1270.35,840.276L1260.85,815.412L1251.44,840.276Z"/>
            </g>
            <g transform="matrix(2.85347,0,-0.893426,1.73789,-1049.29,-449.794)">
                <path d="M1031.21,866.1C1011.18,866.1 1001.17,855.572 1001.17,834.516C1001.17,823.188 1003.69,814.996 1008.75,809.94C1013.81,804.884 1021.29,802.356 1031.21,802.356C1041.13,802.356 1048.62,804.884 1053.68,809.94C1058.73,814.996 1061.26,823.188 1061.26,834.516C1061.26,855.572 1051.25,866.1 1031.21,866.1ZM913.709,866.1C893.677,866.1 883.661,855.572 883.661,834.516C883.661,823.188 886.189,814.996 891.245,809.94C896.301,804.884 903.789,802.356 913.709,802.356C923.629,802.356 931.117,804.884 936.173,809.94C941.229,814.996 943.757,823.188 943.757,834.516C943.757,855.572 933.741,866.1 913.709,866.1ZM834.989,865.14L834.989,803.316L878.477,803.316L878.477,813.396L847.949,813.396L847.949,829.236L874.925,829.236L874.925,839.22L847.949,839.22L847.949,865.14L834.989,865.14ZM966.029,865.14L966.029,813.3L947.021,813.3L947.021,803.316L997.901,803.316L997.901,813.3L978.989,813.3L978.989,865.14L966.029,865.14ZM1070.29,865.14L1070.29,803.316L1081.52,803.316L1110.8,844.5L1110.8,803.316L1123.76,803.316L1123.76,865.14L1112.53,865.14L1083.25,823.956L1083.25,865.14L1070.29,865.14ZM1031.21,855.06C1037.04,855.06 1041.31,853.38 1044.03,850.02C1046.75,846.66 1048.11,841.492 1048.11,834.516C1048.11,826.772 1046.75,821.316 1044.03,818.148C1041.31,814.98 1037.04,813.396 1031.21,813.396C1025.39,813.396 1021.12,814.98 1018.4,818.148C1015.68,821.316 1014.32,826.772 1014.32,834.516C1014.32,841.492 1015.68,846.66 1018.4,850.02C1021.12,853.38 1025.39,855.06 1031.21,855.06ZM913.709,855.06C919.533,855.06 923.805,853.38 926.525,850.02C929.245,846.66 930.605,841.492 930.605,834.516C930.605,826.772 929.245,821.316 926.525,818.148C923.805,814.98 919.533,813.396 913.709,813.396C907.885,813.396 903.613,814.98 900.893,818.148C898.173,821.316 896.813,826.772 896.813,834.516C896.813,841.492 898.173,846.66 900.893,850.02C903.613,853.38 907.885,855.06 913.709,855.06Z"/>
            </g>
        </g>
    </g>
</svg>
